PathFileType	4	(X/Y/Z)	11_2_10_p0_0-295_filt_butterworth.trc
DataRate	CameraRate	NumFrames	NumMarkers	Units	OrigDataRate	OrigDataStartFrame	OrigNumFrames
59.0	59.0	5	27	m	59.0	36	295
Frame#	Time	RHip			RKnee			RAnkle			RBigToe			RSmallToe			RHeel			LHip			LKnee			LAnkle			LBigToe			LSmallToe			LHeel			Neck			Head			Nose			RShoulder			RElbow			RWrist			RThumb			RIndex			RPinky			LShoulder			LElbow			LWrist			LThumb			LIndex			LPinky			
		X1	Y1	Z1	X2	Y2	Z2	X3	Y3	Z3	X4	Y4	Z4	X5	Y5	Z5	X6	Y6	Z6	X7	Y7	Z7	X8	Y8	Z8	X9	Y9	Z9	X10	Y10	Z10	X11	Y11	Z11	X12	Y12	Z12	X13	Y13	Z13	X14	Y14	Z14	X15	Y15	Z15	X16	Y16	Z16	X17	Y17	Z17	X18	Y18	Z18	X19	Y19	Z19	X20	Y20	Z20	X21	Y21	Z21	X22	Y22	Z22	X23	Y23	Z23	X24	Y24	Z24	X25	Y25	Z25	X26	Y26	Z26	X27	Y27	Z27	
36	0.6101694915254238	0.37809590926779657	0.5529733659894285	0.6371074752420722	0.36953043324769735	0.6176496593775714	1.0794748927372337	0.3576207189450752	0.7065975652987466	1.462333832679251	0.3658511016153625	0.5562774077353865	1.472358018974848	0.4182524309980974	0.5808719935311076	1.4639551961519361	0.3359618774205272	0.7990102654120865	1.537889905452474	0.17611291799825596	0.540925464400107	0.6349002615511312	0.16467064377611076	0.6248322577996243	1.076638245014394	0.1789965633049358	0.6819897562053618	1.4635413538039606	0.19880627054055725	0.4873943050609033	1.4435992169942493	0.15107168045180097	0.5289247960155492	1.43951884645517	0.18988270659352727	0.7156177819055518	1.503924899694445	0.2809567926645227	0.5111842092877978	0.07585596231371752	0.32878169905491267	0.4531735693567805	-0.16059213481944362	0.3131460268548143	0.4056750789526074	-0.02629427938295828	0.4238928912033853	0.5583162320979522	0.17194832505454788	0.4338722922216893	0.5046695652356253	0.4477855619178425	0.35361276040717576	0.42516121737781587	0.6481263386904998	0.26704545252214473	0.4084585229809823	0.7336565242984225	0.26677747448260813	0.4123896146916646	0.7454059357920368	0.2883586177785341	0.4296859738778895	0.7514774683780026	0.12053190566272147	0.5305528810403786	0.16237659931231344	0.10916010997832051	0.48948939190300383	0.42098627436778485	0.22762251355454083	0.4015642792195043	0.6489368538634659	0.28997557710275	0.38879649652656695	0.7098718955377086	0.28411966919160947	0.40643756877285264	0.7542275002625513	0.2625968990861317	0.42462200492791247	0.7559423282801963
37	0.6271186440677966	0.37813964953257345	0.5530222692355671	0.6382616393930141	0.3695534846313931	0.6171754513000167	1.0794864745385777	0.35757413957817563	0.7067181914947168	1.4625168399973176	0.3658752137663632	0.5563530215453409	1.4725541825833377	0.4186707699029093	0.5816865591765705	1.4661697827349331	0.3354113314127978	0.7980362757395688	1.5373644039769974	0.17617125148825385	0.5414958363731842	0.6361659553558775	0.16319856010373293	0.6273533386036867	1.077871625052159	0.1789204578390341	0.6818717861808898	1.4643632026520041	0.19849675745784684	0.4867133803897602	1.443191977396672	0.15095733814929058	0.5254312486378099	1.440159619892921	0.19018154815330496	0.7154464089102839	1.5044116837824242	0.28095707548714216	0.5111978990791988	0.07590467625030925	0.32875764623550724	0.45308040236549674	-0.16021901331840785	0.313080070667046	0.4058388400214933	-0.02633396652011945	0.4240270946668828	0.5586237901406299	0.17290191659983745	0.43384621668010626	0.5047013582373078	0.4471665162893632	0.3534936083275352	0.42520329137332985	0.6484365237678138	0.26695884174909834	0.40838072113644075	0.7343400063561516	0.26680835794595753	0.4126596279397091	0.7456513085644761	0.2885770935732882	0.4300754723637511	0.7526494076860413	0.12052828071005789	0.5308478167854804	0.16329389718948897	0.10911083053105178	0.48934863871013645	0.4209151560828638	0.2269741596410666	0.39819626869736857	0.649382475535473	0.289075419342919	0.38880348362493855	0.7096475325576679	0.284299556018177	0.4050197547583405	0.7546886412108743	0.26350637981579655	0.4244999750378805	0.7566846524622668
38	0.6440677966101694	0.3780700761240932	0.5531435124754617	0.6378249965509217	0.36900829690465353	0.6178864680787254	1.079334340915145	0.35753356516117696	0.7067305364885973	1.4625781246838687	0.36588645465777947	0.5561100145030622	1.472557154580735	0.4184528859055536	0.5800185631259656	1.466285095901033	0.3339948554343314	0.8006897947272001	1.5387970502389317	0.17623345702620122	0.5424595351003859	0.637021776513005	0.16200119512032848	0.6263518380410197	1.0776083997705157	0.17892916388868094	0.681787388379857	1.464416193412058	0.1984711361704913	0.48644709889350884	1.4429846894168714	0.15095751292929635	0.524275051306728	1.4401090297969654	0.1903852147190025	0.7159198165324582	1.5055614089042078	0.2809527436715798	0.5112098292127	0.07593821576840194	0.3285989567934923	0.45329764376192083	-0.16027005334607364	0.31295228917907053	0.40610167501318545	-0.026415407911171588	0.42404973434469917	0.558827513707459	0.1732060263069472	0.4344127060230202	0.5033840239733424	0.4466888678338631	0.3535815121144322	0.4252607638313113	0.6483652622187199	0.26694935234831824	0.40852298865548253	0.7344551205870855	0.26688358224298675	0.413190969789048	0.7470468191842048	0.28887145191412544	0.4304641404874742	0.7544972992440558	0.12047048264425336	0.5310037066071709	0.16448782299552173	0.10903218208376586	0.48935433674862217	0.42125719081799906	0.22648839874211452	0.3952757498462607	0.6494994101100535	0.28849096004033753	0.3882835844977447	0.7093995535553002	0.28416736715605134	0.40399331155261786	0.7554357547572845	0.2638304180971984	0.4244325353081423	0.7585097828815219
39	0.6610169491525424	0.37795415792418474	0.5536111180478218	0.6376299148955641	0.3674847367044076	0.6171860000211854	1.0788389474194964	0.35749549241277123	0.7066179973108313	1.4624445824387866	0.36589774693361615	0.5557628475358025	1.4724380962920065	0.4176130123385934	0.57600292903657	1.4649618908948414	0.3321227744482075	0.8060846031921813	1.5417282454910164	0.17621440009616887	0.5432531992490316	0.6364306014162013	0.16056306138326837	0.6244869666204551	1.0769159890131905	0.17894877432892115	0.6816968347848054	1.4642273742921068	0.1985409653628012	0.48643892347445306	1.4429432248927898	0.15093589574599475	0.5247196662175586	1.4391638932365312	0.19046897808516472	0.7168587794614744	1.508565121084609	0.28093215170173425	0.511195341812179	0.07596242712744615	0.32852814793324403	0.4535285510236229	-0.16037495202855137	0.3129304992382131	0.40609572005355965	-0.026453261769969955	0.42397844084449277	0.5590708435827153	0.17320489827836497	0.4361588122465019	0.5001354828202187	0.4464032919506987	0.3541854790634706	0.42555409035441566	0.6484705443338994	0.26690918323015334	0.40874410483067347	0.7347173075637483	0.2667742557079268	0.4134749729542794	0.7494123401640691	0.28893824047481564	0.4305709222923278	0.75662615488712	0.12043147315670888	0.5310334862750551	0.16537864149562181	0.10893541945181698	0.4894182524754951	0.4222103295299366	0.22665375187271553	0.39262211983544637	0.6494182254824344	0.2882906684156498	0.38537696180789305	0.7093473039090805	0.28381370141042905	0.40246632831974666	0.7562542102780977	0.263770169722077	0.4244330700552481	0.7607359609867279
40	0.6779661016949152	0.37791030447963836	0.5539829606005818	0.6385718417651196	0.3658849008734624	0.6153458668762033	1.0780777974470628	0.3574514845509921	0.7064794375133396	1.4621717525430278	0.36591068400648036	0.5556208643974885	1.47232606007226	0.4164915968463103	0.5711156499075732	1.4633463405853624	0.33071062066164264	0.8106828356238917	1.5442355446750728	0.1760608840825286	0.5430962136807735	0.6348323461163994	0.1589166118483888	0.6232331660097046	1.0764246698210493	0.17894183701162952	0.6815800615623435	1.4640770333149684	0.19859425585706547	0.48648005654269816	1.4429649035496466	0.1508034742836468	0.5256044400800253	1.4377840056623454	0.19039437892601324	0.7179196153663283	1.5136120248921143	0.2808763901196225	0.5111421519427178	0.07598296182412713	0.3285609915669613	0.4538284835412715	-0.16041551881037686	0.31337735115770293	0.40491754299086724	-0.02652821972581295	0.4238746938289842	0.5593854823779021	0.17319136174461414	0.43892328449782214	0.4962859644521596	0.4469783008445478	0.3554823979216146	0.426284766975497	0.6492682435850586	0.26686563379062106	0.4092105296416725	0.7361498708001681	0.2665541104558146	0.4134875658935176	0.7527210405800586	0.28856532433875404	0.43040589397097917	0.7590300554957697	0.12058231622389975	0.5310846107099699	0.1658013388250851	0.10880333365880801	0.48947847383522847	0.4234996564156992	0.22777751542552588	0.3889105074962896	0.6495636947287589	0.2881892606698526	0.37898420492636986	0.7099793771685763	0.2828966255524291	0.3992665741892514	0.7568940082525679	0.2635577314209553	0.4244000225821068	0.7623823634976284
